<svg viewBox="0 0 48 48" xmlns="http://www.w3.org/2000/svg"><g fill="none"><path d="M39.612 39.5l-.111.112A21.93 21.93 0 0 1 24 46a21.931 21.931 0 0 1-15.558-6.445L8.27 8.62c.116-.118.233-.235.35-.35l30.936.172A21.931 21.931 0 0 1 46 24a21.93 21.93 0 0 1-6.388 15.5z" fill="#4285F4"/><path d="M8.388 8.5l.111-.112A21.93 21.93 0 0 1 24 2a21.93 21.93 0 0 1 15.5 6.388l.055.054-31.11 31.113-.204-.204A21.928 21.928 0 0 1 2 24 21.93 21.93 0 0 1 8.388 8.5z" fill="#3B78E7"/><path d="M31 27.8a7.864 7.864 0 0 0 6.975-6.8h.005l.005-.067a7.97 7.97 0 0 0 .06-.92V16h-6v2.5h3.5V20A5.376 5.376 0 0 1 31 25.282V27.8zM26 35v-5h-4v5h-3a2 2 0 0 0-2 2v1h14v-1a2 2 0 0 0-2-2h-3zm-9-9.725v2.52A7.866 7.866 0 0 1 10.07 21h-.005l-.005-.067a7.97 7.97 0 0 1-.06-.92V16h6v2.5h-3.5V20a5.375 5.375 0 0 0 4.5 5.275z" fill="#E0E0E0"/><path d="M32.555 44.275L17.873 29.59A8.98 8.98 0 0 1 15 23V13l18-.002 12.918 12.92c-.716 8.285-6.023 15.256-13.363 18.357z" fill-opacity=".1" fill="#000"/><path d="M15 13v10a9 9 0 0 0 18 0V13H15zm12.258 14L24 24.918 20.742 27l.96-3.75-2.922-2.5 3.758-.168L24 17l1.462 3.582 3.758.168-2.922 2.5.96 3.75z" fill="#EEE"/></g></svg>