<svg viewBox="0 0 48 48" xmlns="http://www.w3.org/2000/svg"><g fill="none" fill-rule="evenodd"><path fill="#00ACC1" d="M44 35.5V24l-5.625 1.118L34 29.75H19.781L24 47z"/><path fill="#E53935" d="M44 24l-10 5.75-4.219-17.25H44z"/><path fill="#F44336" d="M34 29.75V12.5H22.594L24 29.75z"/><path fill="#F9A825" d="M24 29.75H14L12.36 12.5H24z"/><path fill="#FDD835" d="M4 35.5v-23h10v28.75z"/><path fill="#00BCD4" d="M24 47V29.75H14v11.5z"/><path fill="#4DD0E1" d="M24 35.5l-10-5.75L24 24l10 5.75z"/><path fill="#FFEB3B" d="M24 12.5V6.75H14L4 12.5l10 5.75z"/><path fill="#FF5252" d="M44 12.5L24 1 14 6.75l20 11.5z"/></g></svg>