<svg viewBox="0 0 48 48" xmlns="http://www.w3.org/2000/svg"><g fill="none"><path d="M30.426 12.157c2.88 0 5.215 2.351 5.215 5.25 0 0 2.766 3.11 4 3.11s4.103-3.108 4.103-3.108C43.744 10.003 37.779 4 30.426 4a13.24 13.24 0 0 0-9.42 3.928s-.407 4.668.686 5.767c1.093 1.1 5.044 0 5.044 0a5.186 5.186 0 0 1 3.69-1.538z" fill="#FBBC05"/><path d="M17.318 35.843c-2.88 0-5.215-2.351-5.215-5.25l-4.257-2.335L4 30.591C4 37.997 9.964 44 17.318 44c3.68 0 7.01-1.502 9.42-3.928l-.43-5.767h-5.3a5.186 5.186 0 0 1-3.69 1.538z" fill="#4285F4"/><path d="M21.008 26.885a5.245 5.245 0 0 1 1.525 3.711 5.244 5.244 0 0 1-1.525 3.709l5.73 5.767a13.403 13.403 0 0 0 3.895-9.267c-.069 0-.138.005-.207.005-1.117 0-4.725-10.737-3.69-9.695a5.245 5.245 0 0 1-1.526-3.711c0-1.448.582-2.759 1.526-3.709l-5.73-5.767a13.403 13.403 0 0 0-3.896 9.267c.07 0 .139-.005.208-.005 1.391 0 4.953 10.966 3.69 9.695z" fill="#EA4335"/><path d="M30.633 30.805a13.466 13.466 0 0 1-.956 4.805l-8.667-8.722a13.231 13.231 0 0 0 9.418 3.925l.205-.008z" fill-opacity=".1" fill="#000"/><path d="M35.638 17.406c0 2.899-2.335 5.247-5.215 5.247a5.183 5.183 0 0 1-3.687-1.536l-.003-.002a13.231 13.231 0 0 0-9.418-3.925c-.069 0-.138.005-.207.005C9.85 17.308 4 23.262 4 30.594h8.105c0-2.899 2.336-5.247 5.216-5.247 1.438 0 2.743.586 3.687 1.536l.002.002a13.231 13.231 0 0 0 9.418 3.925c.07 0 .139-.005.208-.005 7.259-.113 13.11-6.064 13.11-13.399h-8.108z" fill="#34A853"/></g></svg>