<svg viewBox="0 0 48 48" xmlns="http://www.w3.org/2000/svg"><g fill="none"><path d="M40 43a3 3 0 0 1-5.123 2.12L24 34.25v-20.5L34.877 2.883A3 3 0 0 1 40 5v38z" fill="#0288D1"/><path d="M38.148 45.765A2.953 2.953 0 0 0 40 43V29.75l-16-16v20.5l10.877 10.867a2.96 2.96 0 0 0 3.27.648z" fill-opacity=".1" fill="#000"/><path d="M8 43a3 3 0 0 0 5.123 2.12L24 34.25v-20.5L13.123 2.883A3 3 0 0 0 8 5v38z" fill="#3F51B5"/><path d="M32.835 25.415L24 34.25l-8.835-8.835a2 2 0 0 1 0-2.828L24 13.75l8.835 8.835a2 2 0 0 1 0 2.83z" fill="#EEE"/><path d="M24 34.25l-8.835-8.835a2 2 0 0 1 0-2.828L24 13.75v20.5z" fill="#D0D4ED"/></g></svg>