<svg viewBox="0 0 48 48" xmlns="http://www.w3.org/2000/svg"><g fill="none" fill-rule="evenodd"><path d="M46 24c0-12.15-9.85-22-22-22S2 11.85 2 24s9.85 22 22 22l22-22z" fill="#37474F"/><path d="M43.35 13.523c-14.892 3.38-26.865 14.44-31.536 28.797A21.898 21.898 0 0 0 24 46c12.15 0 22-9.85 22-22 0-3.793-.96-7.362-2.65-10.477z" fill="#4285F4"/><path d="M8.6 28.767a.55.55 0 1 0 0-1.1.55.55 0 0 0 0 1.1zm9.167-18.7a.55.55 0 1 0 0-1.1.55.55 0 0 0 0 1.1zm-2.934 5.683a.55.55 0 1 0 0-1.1.55.55 0 0 0 0 1.1zm-2.75 12.283a.733.733 0 1 0 0-1.466.733.733 0 0 0 0 1.466zM24.55 11.717a.55.55 0 1 0 0-1.1.55.55 0 0 0 0 1.1zm3.3-3.117a.917.917 0 1 0 0-1.833.917.917 0 0 0 0 1.833z" fill="#BBDEFB"/><path d="M11.35 22.35l20.9-7.15 13.263 13.425c-1.456 6.804-6.057 12.441-12.209 15.316L11.35 22.35z" fill-opacity=".1" fill="#000"/><path d="M32.433 15.567l-6.05 20.35a.394.394 0 0 1-.366.366h-.184c-.183 0-.366 0-.366-.183l-5.134-8.8-8.983-4.95c-.183-.183-.183-.367-.183-.55 0-.183.183-.367.366-.367L31.7 15.017c.183 0 .367 0 .55.183 0 0 .199.322.183.367z" fill="#E0E0E0"/><path d="M32.341 15.292l.07.07.068.07-.046.135-6.05 20.35a.394.394 0 0 1-.366.366h-.184c-.183 0-.366 0-.366-.183l-5.134-8.8 12.008-12.008z" fill="#F5F5F5"/></g></svg>