<svg viewBox="0 0 100 22" xmlns="http://www.w3.org/2000/svg"><path d="M31,3.435 C30.64,2.085 29.575,1.02 28.22,0.655 C25.77,0 15.94,0 15.94,0 C15.94,0 6.115,0 3.66,0.655 C2.31,1.015 1.245,2.08 0.88,3.435 C0.225,5.885 0.225,11 0.225,11 C0.225,11 0.225,16.115 0.88,18.565 C1.24,19.915 2.305,20.98 3.66,21.345 C6.115,22 15.94,22 15.94,22 C15.94,22 25.77,22 28.22,21.345 C29.57,20.985 30.635,19.92 31,18.565 C31.655,16.115 31.655,11 31.655,11 C31.655,11 31.655,5.885 31,3.435 Z" fill="#ea4335"/><polygon fill="#fff" points="12.8 15.715 20.965 11 12.8 6.285"/><path d="M45.845,20.015 C45.225,19.595 44.78,18.945 44.52,18.06 C44.26,17.175 44.125,16 44.125,14.53 L44.125,12.53 C44.125,11.045 44.275,9.855 44.575,8.955 C44.875,8.055 45.345,7.4 45.98,6.99 C46.615,6.58 47.45,6.37 48.485,6.37 C49.505,6.37 50.32,6.58 50.935,7 C51.55,7.42 52,8.075 52.285,8.965 C52.57,9.855 52.71,11.045 52.71,12.525 L52.71,14.525 C52.71,15.995 52.57,17.175 52.295,18.065 C52.02,18.955 51.57,19.61 50.945,20.02 C50.325,20.43 49.48,20.64 48.415,20.64 C47.325,20.645 46.465,20.435 45.845,20.015 Z M93.58,14.565 L93.58,15.26 C93.58,16.145 93.605,16.805 93.66,17.25 C93.71,17.69 93.82,18.015 93.985,18.215 C94.15,18.415 94.405,18.52 94.75,18.52 C95.215,18.52 95.535,18.34 95.705,17.98 C95.875,17.62 95.97,17.02 95.985,16.18 L98.66,16.335 C98.675,16.455 98.68,16.62 98.68,16.83 C98.68,18.105 98.33,19.055 97.635,19.685 C96.94,20.315 95.955,20.63 94.68,20.63 C93.15,20.63 92.08,20.15 91.465,19.19 C90.85,18.23 90.545,16.75 90.545,14.74 L90.545,12.335 C90.545,10.265 90.865,8.76 91.5,7.805 C92.135,6.855 93.225,6.38 94.77,6.38 C95.835,6.38 96.65,6.575 97.22,6.965 C97.79,7.355 98.19,7.96 98.425,8.785 C98.655,9.61 98.775,10.75 98.775,12.2 L98.775,14.56 L93.58,14.56 L93.58,14.565 Z M38.295,14.305 L34.765,1.56 L37.845,1.56 L39.08,7.335 C39.395,8.76 39.625,9.97 39.775,10.975 L39.865,10.975 C39.97,10.255 40.2,9.05 40.56,7.355 L41.84,1.555 L44.92,1.555 L41.35,14.305 L41.35,20.42 L38.295,20.42 L38.295,14.305 Z M62.725,6.64 L62.725,20.415 L60.3,20.415 L60.03,18.73 L59.965,18.73 C59.305,20.005 58.315,20.64 57,20.64 C56.085,20.64 55.41,20.34 54.975,19.74 C54.54,19.14 54.325,18.205 54.325,16.93 L54.325,6.64 L57.425,6.64 L57.425,16.755 C57.425,17.37 57.49,17.81 57.625,18.07 C57.76,18.33 57.985,18.465 58.3,18.465 C58.57,18.465 58.83,18.385 59.075,18.22 C59.32,18.055 59.505,17.845 59.625,17.59 L59.625,6.64 L62.725,6.64 Z M78.635,6.64 L78.635,20.415 L76.21,20.415 L75.94,18.73 L75.875,18.73 C75.215,20.005 74.225,20.64 72.91,20.64 C71.995,20.64 71.32,20.34 70.885,19.74 C70.45,19.14 70.235,18.205 70.235,16.93 L70.235,6.64 L73.335,6.64 L73.335,16.755 C73.335,17.37 73.4,17.81 73.535,18.07 C73.67,18.33 73.895,18.465 74.21,18.465 C74.48,18.465 74.74,18.385 74.985,18.22 C75.23,18.055 75.415,17.845 75.535,17.59 L75.535,6.64 L78.635,6.64 Z M71.155,4.055 L68.075,4.055 L68.075,20.415 L65.04,20.415 L65.04,4.055 L61.96,4.055 L61.96,1.56 L71.15,1.56 L71.15,4.055 L71.155,4.055 Z M88.9,8.845 C89.085,9.715 89.18,10.92 89.175,12.46 L89.175,14.64 C89.175,16.695 88.93,18.205 88.435,19.17 C87.94,20.135 87.17,20.62 86.12,20.62 C85.535,20.62 85.005,20.485 84.525,20.215 C84.045,19.945 83.685,19.58 83.445,19.115 L83.38,19.115 L83.065,20.42 L80.505,20.42 L80.505,0.865 L83.495,0.865 L83.495,8.125 L83.52,8.125 C83.79,7.6 84.17,7.175 84.665,6.855 C85.16,6.53 85.69,6.37 86.26,6.37 C86.995,6.37 87.57,6.565 87.99,6.955 C88.41,7.345 88.71,7.975 88.9,8.845 Z M49.33,17.855 C49.5,17.405 49.59,16.67 49.59,15.655 L49.59,11.36 C49.59,10.37 49.505,9.65 49.33,9.19 C49.16,8.735 48.855,8.505 48.42,8.505 C48,8.505 47.705,8.735 47.53,9.19 C47.36,9.645 47.27,10.37 47.27,11.36 L47.27,15.655 C47.27,16.675 47.35,17.41 47.515,17.855 C47.68,18.305 47.98,18.53 48.415,18.53 C48.855,18.53 49.155,18.305 49.33,17.855 Z M93.975,8.765 C93.82,8.96 93.715,9.28 93.66,9.72 C93.605,10.16 93.58,10.835 93.58,11.73 L93.58,12.72 L95.85,12.72 L95.85,11.73 C95.85,10.845 95.82,10.175 95.76,9.72 C95.7,9.265 95.59,8.94 95.435,8.755 C95.28,8.57 95.035,8.475 94.705,8.475 C94.375,8.47 94.13,8.57 93.975,8.765 Z M86.055,14.465 L86.05,14.465 L86.05,12.685 C86.05,11.605 86.015,10.775 85.95,10.19 C85.88,9.61 85.76,9.19 85.59,8.945 C85.42,8.7 85.175,8.575 84.86,8.575 C84.56,8.575 84.285,8.695 84.03,8.935 C83.775,9.175 83.595,9.48 83.49,9.855 L83.49,17.68 C83.625,17.92 83.805,18.1 84.02,18.22 C84.24,18.34 84.475,18.4 84.73,18.4 C85.06,18.4 85.32,18.28 85.515,18.04 C85.71,17.8 85.85,17.395 85.93,16.825 C86.015,16.255 86.055,15.47 86.055,14.465 Z" fill="#282828"/></svg>