<?xml version="1.0" encoding="UTF-8"?>
<svg width="128px" height="128px" viewBox="0 0 128 128" version="1.1" xmlns="http://www.w3.org/2000/svg" xmlns:xlink="http://www.w3.org/1999/xlink">
    <!-- Generator: Sketch 43.2 (39069) - http://www.bohemiancoding.com/sketch -->
    <title>Artboard</title>
    <desc>Created with Sketch.</desc>
    <defs>
        <path d="M86.4,43.2 C86.4,67 67.1,86.4 43.2,86.4 C19.4,86.4 0,67.1 0,43.2 C0,19.4 19.3,0 43.2,0 C67.1,0.1 86.4,19.4 86.4,43.2" id="path-1"></path>
        <rect id="path-3" x="0.6" y="0.1" width="89" height="103.3"></rect>
        <path d="M113.9,21.3 L113.9,8.2 L106.7,8.2 L106.7,21.3 L96.8,21.3 L96.8,12 L89.6,12 C88.8,12 88.1,12.7 88.1,13.5 C88.1,14.3 87.4,15 86.6,15 L83.2,15 L83.2,6.5 C83.2,5.7 82.5,5 81.7,5 L81.2,5 C80.4,5 79.7,4.3 79.7,3.5 L79.7,0.3 L72.5,0.3 L72.5,5 L64.2,5 L64.2,19.9 L42.8,19.9 L42.8,6.6 L28.8,13 L28.8,24.6 C28.8,25.4 28.1,26.1 27.3,26.1 L26.8,26.1 C26,26.1 25.3,25.4 25.3,24.6 L25.3,24.4 C25.3,23.6 24.6,22.9 23.8,22.9 L19.7,22.9 C18.9,22.9 18.2,23.6 18.2,24.4 L18.2,24.6 C18.2,25.4 17.5,26.1 16.7,26.1 L16,26.1 C15.2,26.1 14.5,25.4 14.5,24.6 L14.5,13 L7.3,13 L7.3,19.9 L0.2,19.9 L0.2,71 L42.7,71 L54.6,63.1 L118.1,63.1 L118.1,21.3 L113.9,21.3" id="path-5"></path>
        <rect id="path-7" x="0.6" y="0.1" width="89" height="103.3"></rect>
        <rect id="path-9" x="0.6" y="0" width="89" height="58.8"></rect>
        <path d="M86.4,43.5 C86.4,67.3 67.1,86.7 43.2,86.7 C19.4,86.7 0,67.4 0,43.5 C0,19.7 19.3,0.3 43.2,0.3 C67.1,0.4 86.4,19.7 86.4,43.5" id="path-11"></path>
        <rect id="path-13" x="0.6" y="0" width="89" height="60.4"></rect>
        <circle id="path-15" cx="43.2" cy="43.3" r="43.2"></circle>
        <rect id="path-17" x="0.6" y="0.1" width="89" height="103.3"></rect>
        <rect id="path-19" x="0.6" y="0.9" width="89" height="52.4"></rect>
        <ellipse id="path-21" cx="83.2" cy="46.6" rx="82.9" ry="46.5"></ellipse>
        <rect id="path-23" x="0.6" y="0" width="89" height="87.4"></rect>
        <rect id="path-25" x="0.6" y="0.9" width="89" height="52.4"></rect>
        <rect id="path-27" x="0.6" y="0" width="89" height="87.4"></rect>
        <path d="M75.3,40.1 C75.3,45.4 71.1,49.7 65.9,49.7 C60.7,49.7 56.5,45.4 56.5,40.1 C56.5,34.8 60.7,30.5 65.9,30.5 C71,30.5 75.3,34.8 75.3,40.1" id="path-29"></path>
    </defs>
    <g id="Page-1" stroke="none" stroke-width="1" fill="none" fill-rule="evenodd">
        <g id="Artboard">
            <g id="Clipped" transform="translate(21.000000, 28.000000)">
                <mask id="mask-2" fill="white">
                    <use xlink:href="#path-1"></use>
                </mask>
                <g id="SVGID_5_"></g>
                <g mask="url(#mask-2)">
                    <g transform="translate(-2.000000, -16.000000)">
                        <mask id="mask-4" fill="white">
                            <use xlink:href="#path-3"></use>
                        </mask>
                        <g id="SVGID_7_" stroke="none" fill="none"></g>
                        <rect id="Rectangle-path" stroke="none" fill="#F8D846" fill-rule="nonzero" mask="url(#mask-4)" x="-5.9" y="8.1" width="102.2" height="102.2"></rect>
                    </g>
                </g>
            </g>
            <g id="Clipped" transform="translate(5.000000, 56.000000)">
                <mask id="mask-6" fill="white">
                    <use xlink:href="#path-5"></use>
                </mask>
                <g id="SVGID_11_"></g>
                <g mask="url(#mask-6)">
                    <g transform="translate(14.000000, -44.000000)">
                        <mask id="mask-8" fill="white">
                            <use xlink:href="#path-7"></use>
                        </mask>
                        <g id="SVGID_13_" stroke="none" fill="none"></g>
                        <g id="Clipped" stroke="none" stroke-width="1" fill="none" fill-rule="evenodd" mask="url(#mask-8)">
                            <g transform="translate(0.000000, 43.000000)">
                                <mask id="mask-10" fill="white">
                                    <use xlink:href="#path-9"></use>
                                </mask>
                                <g id="SVGID_15_" stroke="none" fill="none"></g>
                                <g id="Clipped" stroke="none" stroke-width="1" fill="none" fill-rule="evenodd" mask="url(#mask-10)">
                                    <g transform="translate(2.000000, -28.000000)">
                                        <mask id="mask-12" fill="white">
                                            <use xlink:href="#path-11"></use>
                                        </mask>
                                        <g id="SVGID_17_" stroke="none" fill="none"></g>
                                        <g id="Clipped" stroke="none" stroke-width="1" fill="none" fill-rule="evenodd" mask="url(#mask-12)">
                                            <g transform="translate(-2.000000, 28.000000)">
                                                <mask id="mask-14" fill="white">
                                                    <use xlink:href="#path-13"></use>
                                                </mask>
                                                <g id="SVGID_19_" stroke="none" fill="none"></g>
                                                <rect id="Rectangle-path" stroke="none" fill="#3F8CF4" fill-rule="nonzero" mask="url(#mask-14)" x="-5.9" y="-35.6" width="102.2" height="102.2"></rect>
                                            </g>
                                        </g>
                                    </g>
                                </g>
                            </g>
                        </g>
                    </g>
                </g>
            </g>
            <g id="Clipped" transform="translate(21.000000, 28.000000)">
                <mask id="mask-16" fill="white">
                    <use xlink:href="#path-15"></use>
                </mask>
                <g id="SVGID_23_"></g>
                <g mask="url(#mask-16)">
                    <g transform="translate(-2.000000, -16.000000)">
                        <mask id="mask-18" fill="white">
                            <use xlink:href="#path-17"></use>
                        </mask>
                        <g id="SVGID_25_" stroke="none" fill="none"></g>
                        <g id="Group" stroke="none" stroke-width="1" fill="none" fill-rule="evenodd" mask="url(#mask-18)">
                            <g transform="translate(0.000000, 50.000000)" id="Clipped">
                                <g>
                                    <mask id="mask-20" fill="white">
                                        <use xlink:href="#path-19"></use>
                                    </mask>
                                    <g id="SVGID_27_"></g>
                                    <g mask="url(#mask-20)">
                                        <g transform="translate(-38.000000, 26.000000)">
                                            <mask id="mask-22" fill="white">
                                                <use xlink:href="#path-21"></use>
                                            </mask>
                                            <g id="SVGID_29_" stroke="none" fill="none"></g>
                                            <g id="Clipped" stroke="none" stroke-width="1" fill="none" fill-rule="evenodd" mask="url(#mask-22)">
                                                <g transform="translate(38.000000, -60.000000)">
                                                    <mask id="mask-24" fill="white">
                                                        <use xlink:href="#path-23"></use>
                                                    </mask>
                                                    <g id="SVGID_31_" stroke="none" fill="none"></g>
                                                    <rect id="Rectangle-path" stroke="none" fill="#20A362" fill-rule="nonzero" mask="url(#mask-24)" x="-45.6" y="52.2" width="181.7" height="108.9"></rect>
                                                </g>
                                            </g>
                                        </g>
                                    </g>
                                </g>
                                <g>
                                    <mask id="mask-26" fill="white">
                                        <use xlink:href="#path-25"></use>
                                    </mask>
                                    <g id="SVGID_27_"></g>
                                    <g mask="url(#mask-26)">
                                        <g transform="translate(0.000000, -34.000000)">
                                            <mask id="mask-28" fill="white">
                                                <use xlink:href="#path-27"></use>
                                            </mask>
                                            <g id="SVGID_33_" stroke="none" fill="none"></g>
                                            <ellipse id="Oval" stroke="#ECECEC" stroke-width="4.949" fill="none" mask="url(#mask-28)" cx="45.2" cy="106.6" rx="82.9" ry="46.5"></ellipse>
                                        </g>
                                    </g>
                                </g>
                            </g>
                        </g>
                    </g>
                </g>
            </g>
            <path d="M92.8,40.4 C92.8,23.4 77,10 59.3,14.2 C51.9,15.9 45.9,21 42.3,27.7 C34.9,41.5 40.6,51.8 47.3,60 C47.3,60 61.9,76.9 64.9,104.1 C64.9,104.1 64.9,105.1 65.8,105.1 C66.7,105.1 66.7,104.1 66.7,104.1 C69.7,76.9 84.3,60 84.3,60 C88.8,54.5 92.8,48.1 92.8,40.4" id="b" fill="#DC4A3D"></path>
            <mask id="mask-30" fill="white">
                <use xlink:href="#path-29"></use>
            </mask>
            <use id="a" fill="#812A28" xlink:href="#path-29"></use>
        </g>
    </g>
</svg>