<svg viewBox="0 0 32 32" xmlns="http://www.w3.org/2000/svg"><g fill="none"><path d="M25.935 25.864l-.071.07A13.956 13.956 0 0 1 16 30a13.956 13.956 0 0 1-9.9-4.101L5.99 6.213c.073-.076.147-.15.223-.223l19.686.11A13.956 13.956 0 0 1 30 16c0 3.848-1.552 7.333-4.065 9.864z" fill="#4285F4"/><path d="M6.065 6.136l.071-.07A13.956 13.956 0 0 1 16 2c3.848 0 7.333 1.552 9.864 4.065l.035.035L6.1 25.899l-.13-.13A13.954 13.954 0 0 1 2 16c0-3.848 1.552-7.333 4.065-9.864z" fill="#3B78E7"/><path d="M20.455 18.418a5.004 5.004 0 0 0 4.438-4.327h.003l.004-.043c.023-.193.036-.387.038-.585v-2.554H21.12V12.5h2.227v.955a3.421 3.421 0 0 1-2.892 3.361v1.602zM17.273 23v-3.182h-2.546V23h-1.909c-.703 0-1.273.57-1.273 1.273v.636h8.91v-.636c0-.703-.57-1.273-1.273-1.273h-1.91zm-5.728-6.189v1.604a5.006 5.006 0 0 1-4.41-4.324h-.003l-.003-.043a5.072 5.072 0 0 1-.038-.585v-2.554h3.818V12.5H8.682v.955a3.42 3.42 0 0 0 2.863 3.356z" fill="#E0E0E0"/><path d="M21.444 28.902l-9.343-9.345a5.714 5.714 0 0 1-1.828-4.193V9l11.454-.002 8.22 8.223c-.455 5.272-3.832 9.708-8.503 11.681z" fill-opacity=".1" fill="#000"/><path d="M10.273 9v6.364a5.728 5.728 0 0 0 11.454 0V9H10.273zm7.8 8.91L16 16.583l-2.073 1.325.611-2.386-1.86-1.591 2.391-.107.931-2.28.93 2.28 2.392.107-1.86 1.59.611 2.387z" fill="#EEE"/></g></svg>