<svg viewBox="0 0 32 32" xmlns="http://www.w3.org/2000/svg"><g fill="none" fill-rule="evenodd"><path fill="#00ACC1" d="M28 23v-7l-3.375.68L22 19.5h-8.531L16 30z"/><path fill="#E53935" d="M28 16l-6 3.5L19.469 9H28z"/><path fill="#F44336" d="M22 19.5V9h-6.844L16 19.5z"/><path fill="#F9A825" d="M16 19.5h-6L9.016 9H16z"/><path fill="#FDD835" d="M4 23V9h6v17.5z"/><path fill="#00BCD4" d="M16 30V19.5h-6v7z"/><path fill="#4DD0E1" d="M16 23l-6-3.5 6-3.5 6 3.5z"/><path fill="#FFEB3B" d="M16 9V5.5h-6L4 9l6 3.5z"/><path fill="#FF5252" d="M28 9L16 2l-6 3.5 12 7z"/></g></svg>