<svg viewBox="0 0 32 32" xmlns="http://www.w3.org/2000/svg"><g fill="none"><path d="M20.516 9.098c1.8 0 3.26 1.47 3.26 3.281 0 0 1.728 1.944 2.5 1.944.771 0 2.564-1.942 2.564-1.942C28.84 7.75 25.112 4 20.516 4c-2.3 0-4.381.939-5.888 2.455 0 0-.253 2.917.43 3.605.683.687 3.152 0 3.152 0a3.242 3.242 0 0 1 2.306-.962z" fill="#FBBC05"/><path d="M12.324 23.902c-1.8 0-3.26-1.47-3.26-3.281l-2.66-1.46L4 20.62C4 25.25 7.728 29 12.324 29c2.3 0 4.381-.939 5.888-2.455l-.27-3.605H14.63a3.242 3.242 0 0 1-2.306.962z" fill="#4285F4"/><path d="M14.63 18.303c.59.594.953 1.413.953 2.32 0 .904-.363 1.724-.953 2.317l3.582 3.605a8.377 8.377 0 0 0 2.434-5.792l-.13.003c-.698 0-2.953-6.71-2.306-6.06a3.278 3.278 0 0 1-.954-2.319c0-.904.364-1.724.954-2.317l-3.582-3.605a8.377 8.377 0 0 0-2.434 5.792c.043 0 .086-.003.13-.003.87 0 3.095 6.854 2.306 6.06z" fill="#EA4335"/><path d="M20.646 20.753a8.416 8.416 0 0 1-.598 3.003l-5.417-5.451a8.27 8.27 0 0 0 5.887 2.453l.128-.005z" fill-opacity=".1" fill="#000"/><path d="M23.774 12.379a3.27 3.27 0 0 1-3.26 3.28 3.24 3.24 0 0 1-2.304-.96l-.002-.002a8.27 8.27 0 0 0-5.886-2.453c-.043 0-.086.003-.13.003C7.657 12.317 4 16.039 4 20.62h5.066a3.27 3.27 0 0 1 3.26-3.28 3.24 3.24 0 0 1 2.304.96l.001.002a8.27 8.27 0 0 0 5.887 2.453c.043 0 .086-.003.13-.003 4.536-.07 8.193-3.79 8.193-8.374h-5.067z" fill="#34A853"/></g></svg>