<svg viewBox="0 0 32 32" xmlns="http://www.w3.org/2000/svg"><g fill="none"><path d="M25.994 27.867a1.874 1.874 0 0 1-3.2 1.325L15.996 22.4V9.591l6.796-6.79a1.874 1.874 0 0 1 3.2 1.323v23.743z" fill="#0288D1"/><path d="M24.836 29.595a1.845 1.845 0 0 0 1.158-1.728v-8.279l-9.997-9.997V22.4l6.796 6.79a1.85 1.85 0 0 0 2.043.405z" fill-opacity=".1" fill="#000"/><path d="M6 27.867a1.874 1.874 0 0 0 3.2 1.325l6.797-6.792V9.591L9.2 2.801A1.874 1.874 0 0 0 6 4.124v23.743z" fill="#3F51B5"/><path d="M21.517 16.88l-5.52 5.52-5.52-5.52a1.25 1.25 0 0 1 0-1.767l5.52-5.522 5.52 5.52a1.25 1.25 0 0 1 0 1.769z" fill="#EEE"/><path d="M15.997 22.4l-5.52-5.52a1.25 1.25 0 0 1 0-1.767l5.52-5.522V22.4z" fill="#D0D4ED"/></g></svg>