<svg viewBox="0 0 32 32" xmlns="http://www.w3.org/2000/svg"><g fill="none"><path d="M22.372 6.199l-5.744 3.263c-.39.221-.867.221-1.256 0L9.628 6.199C9.434 6.088 9.216 6 9 6c-.216 0-.434.088-.628.199L2.644 9.452c-.397.226-.644.65-.644 1.108v7.268c0 .459.247.88.644 1.108l12.728 7.23c.195.112.412.2.628.2.216 0 .434-.088.628-.2l12.728-7.23c.397-.226.644-.65.644-1.108V10.56c0-.459-.247-.88-.644-1.108L23.628 6.2c-.195-.112-.412-.2-.628-.2-.216 0-.434.088-.628.199z" fill="#EA4335"/><path fill="#FFF" d="M23.16 13.795l6.204-3.659-6.205-3.5z"/></g></svg>